<svg xmlns="http://www.w3.org/2000/svg" viewBox="0 0 571.15 535.66"><defs><style>.cls-1{fill:#1d1d1b;}</style></defs><g id="graphics"><path class="cls-1" d="M239.57,121.38c-2.89,4.83,1,9.48,5.48,9.39A32.11,32.11,0,0,1,264,136.54c3.67,2.58,9.49.89,9.79-4.73.53-10.15-4.16-19-12.15-21.47S244.78,112.66,239.57,121.38Z" transform="translate(-136.18 -15.63)"/><path class="cls-1" d="M575,139.58a32.26,32.26,0,0,1,19.78-1c4.32,1.19,9.24-2.36,7.62-7.75-2.92-9.74-10.34-16.52-18.68-16.12s-15.08,7.86-17,17.84C565.62,138.12,570.85,141.18,575,139.58Z" transform="translate(-136.18 -15.63)"/><path class="cls-1" d="M700,529.17a46.14,46.14,0,0,0,7.29-24.88c0-24.81-19.3-47.27-53.32-49.55a10.29,10.29,0,0,0-1.47-.27c-45.48-46.65-66.34-159.62-54-227.51,41.39-3.23,70.5-27.54,81.37-69.05,4.8-18.35-3.72-32.49-21.37-35.85-8.65-1.64-14.4-6.78-17.58-15.7-.1-.28-.21-.56-.33-.83-16.69-37-45.6-41.59-64.76-43.29,0-.07.07-.22,0-.22-6.93.4-15.51.38-10.93-4.71,12.24-13.57,14.38-20,15.79-24.91,3.12-10.9-8.45-18-17.1-16.58-47.59,7.85-94.23,50.35-118.88,108-3.22,7.54-8.7,20.45-15.55,37-8.7-20.9-26.42-71.26-77.48-97.78-22.48-11.68-44.58-15.35-67.68-13.92-19.28,1.17-59.36,3.61-81,52.05-.66.66-5.92,5.11-28.67,7.55a261,261,0,0,1-27,1.37h-.13A11.07,11.07,0,0,0,136.2,121c-.81,62.78,27.49,90.12,48.71,101.78l.09.06c12.78,7.69,28.92,9.51,43.91,9.51,8.12,0,15.52-.53,21-1.08,4.15,26.24,11.88,132.39-40.67,223.49-33.73,2.51-52.72,25-52.72,49.52a46.21,46.21,0,0,0,7.28,24.88s11.93,22.12,48.34,22.12H331a11.06,11.06,0,1,0,0-22.12H208.52c-20.62,0-29.85-12.5-29.85-24.88,0-15.76,13.77-26.89,34.94-27.56,9.71,2.16,21.47,7.66,26.3,21.43a11.06,11.06,0,0,0,20.88-7.32,53,53,0,0,0-28.87-31.23c49.24-89.95,45.52-193.6,40.15-229.09A96.69,96.69,0,0,0,268,214.61a11.06,11.06,0,0,0-11.89-6.39c-9.61,1.57-35.79,4.32-53.91-1.75-.53-.18-1-.37-1.53-.55-19.82-8.64-32.94-25.63-38.81-49.86,7.18-1.63,17.58-7.48,24.35-26.59,20.88-3.31,32.73-9.43,37-19.07C233.41,87.38,248,78,264,74c8.32-2.07,29.73-5,47.93,7.22,5.1,3.41,9.19,9,11.66,16.13,4.11,11.9,1.14,25.21-8.38,37.46-24.67,31.76-30.9,47.95-28.62,69A39,39,0,0,0,307,234.51c16.08,8.92,37.15,9.22,53.22-.7,17.31-10.69,27.34-29.7,32.2-61.76,0-.06,0-.12,0-.18-4.21-10.76-10.87-25.54-19.07-35.84.64,8.94,1.94,20.2-.69,32.13-5.29,23.94-8.65,36-22.11,45.73-10.41,7.56-24.18,6.09-32.86,1.27a17,17,0,0,1-9.11-13.68c-1.24-11.4,0-22.12,24.09-53.07,15.15-19.51,19.95-44.24,8.42-66.06a70.14,70.14,0,0,1,9,5.46h0s15.42,9.78,31.57,30.57c4.68,6,21.09,27.66,35.71,71.54C383.91,273,335,403.54,335,456.57a94.73,94.73,0,0,0,189.45,0c0-28.71-17.11-89.95-50.84-182-7.71-21-15.54-41.58-22.87-60.33l-11.24,32c29.55,77.48,62.82,174.22,62.82,210.36a72.6,72.6,0,1,1-145.19,0c0-56.05,62.92-214.15,84.09-266.41l0,0c11.81-29.16,21-50.7,23.93-57.63,15.69-36.68,47.4-76.29,86-90.51-28.87,27.64-18.53,42.12-8,42.12h28.6c17.78,1.47,36.34,3.47,48.54,30.15,4.79,13.08,13.76,22.46,25.71,27.14-2.58,6.49-4.58,17.62,8.27,23.44-9.73,23-31.06,44.38-77.25,39.77a11.06,11.06,0,1,0-2.2,22c.44,0,.88.07,1.32.11-5.7,35.29-3.63,81.48,5.78,125.51,9.78,45.76,26.34,83.83,47.28,109.32a52.62,52.62,0,0,0-25,29.29,11.06,11.06,0,1,0,20.88,7.32c4.81-13.7,16.47-19.22,26.15-21.39,45.73,2.14,43.75,52.4,4.1,52.4H528.49a11.06,11.06,0,0,0,0,22.12H655.36C690.35,551.29,700,529.17,700,529.17Z" transform="translate(-136.18 -15.63)"/></g></svg>